<?xml version="1.0" encoding="UTF-8"?>
<!DOCTYPE svg PUBLIC "-//W3C//DTD SVG 1.1//EN" "http://www.w3.org/Graphics/SVG/1.1/DTD/svg11.dtd">
<svg width="160mm" height="90mm" viewBox="0 0 16000 9000" version="1.1" xmlns="http://www.w3.org/2000/svg" xmlns:xlink="http://www.w3.org/1999/xlink" stroke-width="28.222" stroke-linejoin="round" xml:space="preserve">
 <path fill="rgb(255,255,255)" stroke="none" d="M 8000,8999 L 0,8999 0,20 15999,20 15999,8999 8000,8999 Z"/>
 <path fill="none" stroke="rgb(179,179,179)" stroke-linejoin="round" d="M 5901,6393 L 1667,6393 1667,200 10135,200 10135,6393 5901,6393 Z"/>
 <path fill="none" stroke="rgb(179,179,179)" stroke-linejoin="round" d="M 10135,6392 L 1667,6392"/>
 <path fill="none" stroke="rgb(179,179,179)" stroke-linejoin="round" d="M 10135,5507 L 1667,5507"/>
 <path fill="none" stroke="rgb(179,179,179)" stroke-linejoin="round" d="M 10135,4622 L 1667,4622"/>
 <path fill="none" stroke="rgb(179,179,179)" stroke-linejoin="round" d="M 10135,3737 L 1667,3737"/>
 <path fill="none" stroke="rgb(179,179,179)" stroke-linejoin="round" d="M 10135,2852 L 1667,2852"/>
 <path fill="none" stroke="rgb(179,179,179)" stroke-linejoin="round" d="M 10135,1967 L 1667,1967"/>
 <path fill="none" stroke="rgb(179,179,179)" stroke-linejoin="round" d="M 10135,1082 L 1667,1082"/>
 <path fill="none" stroke="rgb(179,179,179)" stroke-linejoin="round" d="M 10135,198 L 1667,198"/>
 <path fill="none" stroke="rgb(179,179,179)" stroke-linejoin="round" d="M 1667,6542 L 1667,6392"/>
 <path fill="none" stroke="rgb(179,179,179)" stroke-linejoin="round" d="M 1667,6542 L 1667,6392"/>
 <path fill="none" stroke="rgb(179,179,179)" stroke-linejoin="round" d="M 2513,6542 L 2513,6392"/>
 <path fill="none" stroke="rgb(179,179,179)" stroke-linejoin="round" d="M 2513,6542 L 2513,6392"/>
 <path fill="none" stroke="rgb(179,179,179)" stroke-linejoin="round" d="M 3360,6542 L 3360,6392"/>
 <path fill="none" stroke="rgb(179,179,179)" stroke-linejoin="round" d="M 3360,6542 L 3360,6392"/>
 <path fill="none" stroke="rgb(179,179,179)" stroke-linejoin="round" d="M 4207,6542 L 4207,6392"/>
 <path fill="none" stroke="rgb(179,179,179)" stroke-linejoin="round" d="M 4207,6542 L 4207,6392"/>
 <path fill="none" stroke="rgb(179,179,179)" stroke-linejoin="round" d="M 5054,6542 L 5054,6392"/>
 <path fill="none" stroke="rgb(179,179,179)" stroke-linejoin="round" d="M 5054,6542 L 5054,6392"/>
 <path fill="none" stroke="rgb(179,179,179)" stroke-linejoin="round" d="M 5901,6542 L 5901,6392"/>
 <path fill="none" stroke="rgb(179,179,179)" stroke-linejoin="round" d="M 5901,6542 L 5901,6392"/>
 <path fill="none" stroke="rgb(179,179,179)" stroke-linejoin="round" d="M 6748,6542 L 6748,6392"/>
 <path fill="none" stroke="rgb(179,179,179)" stroke-linejoin="round" d="M 6748,6542 L 6748,6392"/>
 <path fill="none" stroke="rgb(179,179,179)" stroke-linejoin="round" d="M 7595,6542 L 7595,6392"/>
 <path fill="none" stroke="rgb(179,179,179)" stroke-linejoin="round" d="M 7595,6542 L 7595,6392"/>
 <path fill="none" stroke="rgb(179,179,179)" stroke-linejoin="round" d="M 8441,6542 L 8441,6392"/>
 <path fill="none" stroke="rgb(179,179,179)" stroke-linejoin="round" d="M 8441,6542 L 8441,6392"/>
 <path fill="none" stroke="rgb(179,179,179)" stroke-linejoin="round" d="M 9288,6542 L 9288,6392"/>
 <path fill="none" stroke="rgb(179,179,179)" stroke-linejoin="round" d="M 9288,6542 L 9288,6392"/>
 <path fill="none" stroke="rgb(179,179,179)" stroke-linejoin="round" d="M 10135,6542 L 10135,6392"/>
 <path fill="none" stroke="rgb(179,179,179)" stroke-linejoin="round" d="M 10135,6542 L 10135,6392"/>
 <path fill="none" stroke="rgb(179,179,179)" stroke-linejoin="round" d="M 1667,6392 L 10135,6392"/>
 <path fill="none" stroke="rgb(179,179,179)" stroke-linejoin="round" d="M 1517,6392 L 1667,6392"/>
 <path fill="none" stroke="rgb(179,179,179)" stroke-linejoin="round" d="M 1517,6392 L 1667,6392"/>
 <path fill="none" stroke="rgb(179,179,179)" stroke-linejoin="round" d="M 1517,5507 L 1667,5507"/>
 <path fill="none" stroke="rgb(179,179,179)" stroke-linejoin="round" d="M 1517,5507 L 1667,5507"/>
 <path fill="none" stroke="rgb(179,179,179)" stroke-linejoin="round" d="M 1517,4622 L 1667,4622"/>
 <path fill="none" stroke="rgb(179,179,179)" stroke-linejoin="round" d="M 1517,4622 L 1667,4622"/>
 <path fill="none" stroke="rgb(179,179,179)" stroke-linejoin="round" d="M 1517,3737 L 1667,3737"/>
 <path fill="none" stroke="rgb(179,179,179)" stroke-linejoin="round" d="M 1517,3737 L 1667,3737"/>
 <path fill="none" stroke="rgb(179,179,179)" stroke-linejoin="round" d="M 1517,2852 L 1667,2852"/>
 <path fill="none" stroke="rgb(179,179,179)" stroke-linejoin="round" d="M 1517,2852 L 1667,2852"/>
 <path fill="none" stroke="rgb(179,179,179)" stroke-linejoin="round" d="M 1517,1967 L 1667,1967"/>
 <path fill="none" stroke="rgb(179,179,179)" stroke-linejoin="round" d="M 1517,1967 L 1667,1967"/>
 <path fill="none" stroke="rgb(179,179,179)" stroke-linejoin="round" d="M 1517,1082 L 1667,1082"/>
 <path fill="none" stroke="rgb(179,179,179)" stroke-linejoin="round" d="M 1517,1082 L 1667,1082"/>
 <path fill="none" stroke="rgb(179,179,179)" stroke-linejoin="round" d="M 1517,198 L 1667,198"/>
 <path fill="none" stroke="rgb(179,179,179)" stroke-linejoin="round" d="M 1517,198 L 1667,198"/>
 <path fill="none" stroke="rgb(179,179,179)" stroke-linejoin="round" d="M 1667,6392 L 1667,198"/>
 <path fill="rgb(0,69,134)" stroke="none" d="M 9499,6392 L 9923,6392 9923,775 9499,775 9499,6392 Z"/>
 <path fill="rgb(0,69,134)" stroke="none" d="M 8652,6392 L 9076,6392 9076,517 8652,517 8652,6392 Z"/>
 <path fill="rgb(0,69,134)" stroke="none" d="M 7807,6392 L 8229,6392 8229,1027 7807,1027 7807,6392 Z"/>
 <path fill="rgb(0,69,134)" stroke="none" d="M 6960,6392 L 7383,6392 7383,1384 6960,1384 6960,6392 Z"/>
 <path fill="rgb(0,69,134)" stroke="none" d="M 6113,6392 L 6536,6392 6536,1553 6113,1553 6113,6392 Z"/>
 <path fill="rgb(0,69,134)" stroke="none" d="M 5266,6392 L 5689,6392 5689,707 5266,707 5266,6392 Z"/>
 <path fill="rgb(0,69,134)" stroke="none" d="M 4419,6392 L 4842,6392 4842,2247 4419,2247 4419,6392 Z"/>
 <path fill="rgb(0,69,134)" stroke="none" d="M 3572,6392 L 3995,6392 3995,3157 3572,3157 3572,6392 Z"/>
 <path fill="rgb(0,69,134)" stroke="none" d="M 2725,6392 L 3149,6392 3149,4076 2725,4076 2725,6392 Z"/>
 <path fill="rgb(0,69,134)" stroke="none" d="M 1878,6392 L 2302,6392 2302,4519 1878,4519 1878,6392 Z"/>
 <text class="TextShape" transform="rotate(-44.9 527 8508)"><tspan class="TextParagraph" font-family="DejaVu Sans, sans-serif" font-size="353px" font-weight="400"><tspan class="TextPosition" x="527" y="8508"><tspan fill="rgb(0,0,0)" stroke="none">AuditTCP1-10</tspan></tspan></tspan></text>
 <text class="TextShape" transform="rotate(-44.9 1374 8508)"><tspan class="TextParagraph" font-family="DejaVu Sans, sans-serif" font-size="353px" font-weight="400"><tspan class="TextPosition" x="1374" y="8508"><tspan fill="rgb(0,0,0)" stroke="none">AuditTCP2-20</tspan></tspan></tspan></text>
 <text class="TextShape" transform="rotate(-44.9 2221 8508)"><tspan class="TextParagraph" font-family="DejaVu Sans, sans-serif" font-size="353px" font-weight="400"><tspan class="TextPosition" x="2221" y="8508"><tspan fill="rgb(0,0,0)" stroke="none">AuditTCP3-30</tspan></tspan></tspan></text>
 <text class="TextShape" transform="rotate(-44.9 3068 8508)"><tspan class="TextParagraph" font-family="DejaVu Sans, sans-serif" font-size="353px" font-weight="400"><tspan class="TextPosition" x="3068" y="8508"><tspan fill="rgb(0,0,0)" stroke="none">AuditTCP4-40</tspan></tspan></tspan></text>
 <text class="TextShape" transform="rotate(-44.9 3915 8508)"><tspan class="TextParagraph" font-family="DejaVu Sans, sans-serif" font-size="353px" font-weight="400"><tspan class="TextPosition" x="3915" y="8508"><tspan fill="rgb(0,0,0)" stroke="none">AuditTCP5-50</tspan></tspan></tspan></text>
 <text class="TextShape" transform="rotate(-44.9 4705 8565)"><tspan class="TextParagraph" font-family="DejaVu Sans, sans-serif" font-size="353px" font-weight="400"><tspan class="TextPosition" x="4705" y="8565"><tspan fill="rgb(0,0,0)" stroke="none">AuditUDP1-10</tspan></tspan></tspan></text>
 <text class="TextShape" transform="rotate(-44.9 5552 8565)"><tspan class="TextParagraph" font-family="DejaVu Sans, sans-serif" font-size="353px" font-weight="400"><tspan class="TextPosition" x="5552" y="8565"><tspan fill="rgb(0,0,0)" stroke="none">AuditUDP2-20</tspan></tspan></tspan></text>
 <text class="TextShape" transform="rotate(-44.9 6399 8565)"><tspan class="TextParagraph" font-family="DejaVu Sans, sans-serif" font-size="353px" font-weight="400"><tspan class="TextPosition" x="6399" y="8565"><tspan fill="rgb(0,0,0)" stroke="none">AuditUDP3-30</tspan></tspan></tspan></text>
 <text class="TextShape" transform="rotate(-44.9 7246 8565)"><tspan class="TextParagraph" font-family="DejaVu Sans, sans-serif" font-size="353px" font-weight="400"><tspan class="TextPosition" x="7246" y="8565"><tspan fill="rgb(0,0,0)" stroke="none">AuditUDP4-40</tspan></tspan></tspan></text>
 <text class="TextShape" transform="rotate(-44.9 8093 8565)"><tspan class="TextParagraph" font-family="DejaVu Sans, sans-serif" font-size="353px" font-weight="400"><tspan class="TextPosition" x="8093" y="8565"><tspan fill="rgb(0,0,0)" stroke="none">AuditUDP5-50</tspan></tspan></tspan></text>
 <text class="TextShape"><tspan class="TextParagraph" font-family="DejaVu Sans, sans-serif" font-size="352px" font-weight="400"><tspan class="TextPosition" x="1205" y="6512"><tspan fill="rgb(0,0,0)" stroke="none">0</tspan></tspan></tspan></text>
 <text class="TextShape"><tspan class="TextParagraph" font-family="DejaVu Sans, sans-serif" font-size="352px" font-weight="400"><tspan class="TextPosition" x="994" y="5627"><tspan fill="rgb(0,0,0)" stroke="none">50</tspan></tspan></tspan></text>
 <text class="TextShape"><tspan class="TextParagraph" font-family="DejaVu Sans, sans-serif" font-size="352px" font-weight="400"><tspan class="TextPosition" x="782" y="4742"><tspan fill="rgb(0,0,0)" stroke="none">100</tspan></tspan></tspan></text>
 <text class="TextShape"><tspan class="TextParagraph" font-family="DejaVu Sans, sans-serif" font-size="352px" font-weight="400"><tspan class="TextPosition" x="782" y="3857"><tspan fill="rgb(0,0,0)" stroke="none">150</tspan></tspan></tspan></text>
 <text class="TextShape"><tspan class="TextParagraph" font-family="DejaVu Sans, sans-serif" font-size="352px" font-weight="400"><tspan class="TextPosition" x="782" y="2973"><tspan fill="rgb(0,0,0)" stroke="none">200</tspan></tspan></tspan></text>
 <text class="TextShape"><tspan class="TextParagraph" font-family="DejaVu Sans, sans-serif" font-size="352px" font-weight="400"><tspan class="TextPosition" x="782" y="2088"><tspan fill="rgb(0,0,0)" stroke="none">250</tspan></tspan></tspan></text>
 <text class="TextShape"><tspan class="TextParagraph" font-family="DejaVu Sans, sans-serif" font-size="352px" font-weight="400"><tspan class="TextPosition" x="782" y="1203"><tspan fill="rgb(0,0,0)" stroke="none">300</tspan></tspan></tspan></text>
 <text class="TextShape"><tspan class="TextParagraph" font-family="DejaVu Sans, sans-serif" font-size="352px" font-weight="400"><tspan class="TextPosition" x="782" y="318"><tspan fill="rgb(0,0,0)" stroke="none">350</tspan></tspan></tspan></text>
 <path fill="rgb(0,69,134)" stroke="none" d="M 10677,4393 L 10571,4393 10571,4182 10782,4182 10782,4393 10677,4393 Z"/>
 <text class="TextShape"><tspan class="TextParagraph" font-family="DejaVu Sans, sans-serif" font-size="352px" font-weight="400"><tspan class="TextPosition" x="10882" y="4430"><tspan fill="rgb(0,0,0)" stroke="none">26 Maximale Heap-Size des </tspan></tspan><tspan class="TextPosition" x="10882" y="4826"><tspan fill="rgb(0,0,0)" stroke="none">Clients in MiB</tspan></tspan></tspan></text>
</svg>