<?xml version="1.0" encoding="UTF-8"?>
<!DOCTYPE svg PUBLIC "-//W3C//DTD SVG 1.1//EN" "http://www.w3.org/Graphics/SVG/1.1/DTD/svg11.dtd">
<svg width="160mm" height="90mm" viewBox="0 0 16000 9000" version="1.1" xmlns="http://www.w3.org/2000/svg" xmlns:xlink="http://www.w3.org/1999/xlink" stroke-width="28.222" stroke-linejoin="round" xml:space="preserve">
 <path fill="rgb(255,255,255)" stroke="none" d="M 8000,8999 L 0,8999 0,19 15999,19 15999,8999 8000,8999 Z"/>
 <path fill="none" stroke="rgb(179,179,179)" stroke-linejoin="round" d="M 5913,6393 L 1665,6393 1665,199 10161,199 10161,6393 5913,6393 Z"/>
 <path fill="none" stroke="rgb(179,179,179)" stroke-linejoin="round" d="M 10161,6392 L 1665,6392"/>
 <path fill="none" stroke="rgb(179,179,179)" stroke-linejoin="round" d="M 10161,5618 L 1665,5618"/>
 <path fill="none" stroke="rgb(179,179,179)" stroke-linejoin="round" d="M 10161,4843 L 1665,4843"/>
 <path fill="none" stroke="rgb(179,179,179)" stroke-linejoin="round" d="M 10161,4069 L 1665,4069"/>
 <path fill="none" stroke="rgb(179,179,179)" stroke-linejoin="round" d="M 10161,3295 L 1665,3295"/>
 <path fill="none" stroke="rgb(179,179,179)" stroke-linejoin="round" d="M 10161,2520 L 1665,2520"/>
 <path fill="none" stroke="rgb(179,179,179)" stroke-linejoin="round" d="M 10161,1746 L 1665,1746"/>
 <path fill="none" stroke="rgb(179,179,179)" stroke-linejoin="round" d="M 10161,972 L 1665,972"/>
 <path fill="none" stroke="rgb(179,179,179)" stroke-linejoin="round" d="M 10161,198 L 1665,198"/>
 <path fill="none" stroke="rgb(179,179,179)" stroke-linejoin="round" d="M 1665,6541 L 1665,6392"/>
 <path fill="none" stroke="rgb(179,179,179)" stroke-linejoin="round" d="M 1665,6541 L 1665,6392"/>
 <path fill="none" stroke="rgb(179,179,179)" stroke-linejoin="round" d="M 2514,6541 L 2514,6392"/>
 <path fill="none" stroke="rgb(179,179,179)" stroke-linejoin="round" d="M 2514,6541 L 2514,6392"/>
 <path fill="none" stroke="rgb(179,179,179)" stroke-linejoin="round" d="M 3364,6541 L 3364,6392"/>
 <path fill="none" stroke="rgb(179,179,179)" stroke-linejoin="round" d="M 3364,6541 L 3364,6392"/>
 <path fill="none" stroke="rgb(179,179,179)" stroke-linejoin="round" d="M 4214,6541 L 4214,6392"/>
 <path fill="none" stroke="rgb(179,179,179)" stroke-linejoin="round" d="M 4214,6541 L 4214,6392"/>
 <path fill="none" stroke="rgb(179,179,179)" stroke-linejoin="round" d="M 5063,6541 L 5063,6392"/>
 <path fill="none" stroke="rgb(179,179,179)" stroke-linejoin="round" d="M 5063,6541 L 5063,6392"/>
 <path fill="none" stroke="rgb(179,179,179)" stroke-linejoin="round" d="M 5913,6541 L 5913,6392"/>
 <path fill="none" stroke="rgb(179,179,179)" stroke-linejoin="round" d="M 5913,6541 L 5913,6392"/>
 <path fill="none" stroke="rgb(179,179,179)" stroke-linejoin="round" d="M 6763,6541 L 6763,6392"/>
 <path fill="none" stroke="rgb(179,179,179)" stroke-linejoin="round" d="M 6763,6541 L 6763,6392"/>
 <path fill="none" stroke="rgb(179,179,179)" stroke-linejoin="round" d="M 7612,6541 L 7612,6392"/>
 <path fill="none" stroke="rgb(179,179,179)" stroke-linejoin="round" d="M 7612,6541 L 7612,6392"/>
 <path fill="none" stroke="rgb(179,179,179)" stroke-linejoin="round" d="M 8461,6541 L 8461,6392"/>
 <path fill="none" stroke="rgb(179,179,179)" stroke-linejoin="round" d="M 8461,6541 L 8461,6392"/>
 <path fill="none" stroke="rgb(179,179,179)" stroke-linejoin="round" d="M 9311,6541 L 9311,6392"/>
 <path fill="none" stroke="rgb(179,179,179)" stroke-linejoin="round" d="M 9311,6541 L 9311,6392"/>
 <path fill="none" stroke="rgb(179,179,179)" stroke-linejoin="round" d="M 10161,6541 L 10161,6392"/>
 <path fill="none" stroke="rgb(179,179,179)" stroke-linejoin="round" d="M 10161,6541 L 10161,6392"/>
 <path fill="none" stroke="rgb(179,179,179)" stroke-linejoin="round" d="M 1665,6392 L 10161,6392"/>
 <path fill="none" stroke="rgb(179,179,179)" stroke-linejoin="round" d="M 1515,6392 L 1665,6392"/>
 <path fill="none" stroke="rgb(179,179,179)" stroke-linejoin="round" d="M 1515,6392 L 1665,6392"/>
 <path fill="none" stroke="rgb(179,179,179)" stroke-linejoin="round" d="M 1515,5618 L 1665,5618"/>
 <path fill="none" stroke="rgb(179,179,179)" stroke-linejoin="round" d="M 1515,5618 L 1665,5618"/>
 <path fill="none" stroke="rgb(179,179,179)" stroke-linejoin="round" d="M 1515,4843 L 1665,4843"/>
 <path fill="none" stroke="rgb(179,179,179)" stroke-linejoin="round" d="M 1515,4843 L 1665,4843"/>
 <path fill="none" stroke="rgb(179,179,179)" stroke-linejoin="round" d="M 1515,4069 L 1665,4069"/>
 <path fill="none" stroke="rgb(179,179,179)" stroke-linejoin="round" d="M 1515,4069 L 1665,4069"/>
 <path fill="none" stroke="rgb(179,179,179)" stroke-linejoin="round" d="M 1515,3295 L 1665,3295"/>
 <path fill="none" stroke="rgb(179,179,179)" stroke-linejoin="round" d="M 1515,3295 L 1665,3295"/>
 <path fill="none" stroke="rgb(179,179,179)" stroke-linejoin="round" d="M 1515,2520 L 1665,2520"/>
 <path fill="none" stroke="rgb(179,179,179)" stroke-linejoin="round" d="M 1515,2520 L 1665,2520"/>
 <path fill="none" stroke="rgb(179,179,179)" stroke-linejoin="round" d="M 1515,1746 L 1665,1746"/>
 <path fill="none" stroke="rgb(179,179,179)" stroke-linejoin="round" d="M 1515,1746 L 1665,1746"/>
 <path fill="none" stroke="rgb(179,179,179)" stroke-linejoin="round" d="M 1515,972 L 1665,972"/>
 <path fill="none" stroke="rgb(179,179,179)" stroke-linejoin="round" d="M 1515,972 L 1665,972"/>
 <path fill="none" stroke="rgb(179,179,179)" stroke-linejoin="round" d="M 1515,198 L 1665,198"/>
 <path fill="none" stroke="rgb(179,179,179)" stroke-linejoin="round" d="M 1515,198 L 1665,198"/>
 <path fill="none" stroke="rgb(179,179,179)" stroke-linejoin="round" d="M 1665,6392 L 1665,198"/>
 <path fill="rgb(0,69,134)" stroke="none" d="M 9523,6392 L 9948,6392 9948,1049 9523,1049 9523,6392 Z"/>
 <path fill="rgb(0,69,134)" stroke="none" d="M 8674,6392 L 9098,6392 9098,1362 8674,1362 8674,6392 Z"/>
 <path fill="rgb(0,69,134)" stroke="none" d="M 7825,6392 L 8249,6392 8249,2337 7825,2337 7825,6392 Z"/>
 <path fill="rgb(0,69,134)" stroke="none" d="M 6975,6392 L 7400,6392 7400,3360 6975,3360 6975,6392 Z"/>
 <path fill="rgb(0,69,134)" stroke="none" d="M 6125,6392 L 6550,6392 6550,3295 6125,3295 6125,6392 Z"/>
 <path fill="rgb(0,69,134)" stroke="none" d="M 5276,6392 L 5701,6392 5701,961 5276,961 5276,6392 Z"/>
 <path fill="rgb(0,69,134)" stroke="none" d="M 4426,6392 L 4851,6392 4851,2496 4426,2496 4426,6392 Z"/>
 <path fill="rgb(0,69,134)" stroke="none" d="M 3576,6392 L 4001,6392 4001,2358 3576,2358 3576,6392 Z"/>
 <path fill="rgb(0,69,134)" stroke="none" d="M 2727,6392 L 3151,6392 3151,3125 2727,3125 2727,6392 Z"/>
 <path fill="rgb(0,69,134)" stroke="none" d="M 1877,6392 L 2302,6392 2302,4341 1877,4341 1877,6392 Z"/>
 <text class="TextShape" transform="rotate(-44.9 526 8508)"><tspan class="TextParagraph" font-family="DejaVu Sans, sans-serif" font-size="353px" font-weight="400"><tspan class="TextPosition" x="526" y="8508"><tspan fill="rgb(0,0,0)" stroke="none">AuditTCP1-10</tspan></tspan></tspan></text>
 <text class="TextShape" transform="rotate(-44.9 1376 8508)"><tspan class="TextParagraph" font-family="DejaVu Sans, sans-serif" font-size="353px" font-weight="400"><tspan class="TextPosition" x="1376" y="8508"><tspan fill="rgb(0,0,0)" stroke="none">AuditTCP2-20</tspan></tspan></tspan></text>
 <text class="TextShape" transform="rotate(-44.9 2226 8508)"><tspan class="TextParagraph" font-family="DejaVu Sans, sans-serif" font-size="353px" font-weight="400"><tspan class="TextPosition" x="2226" y="8508"><tspan fill="rgb(0,0,0)" stroke="none">AuditTCP3-30</tspan></tspan></tspan></text>
 <text class="TextShape" transform="rotate(-44.9 3075 8508)"><tspan class="TextParagraph" font-family="DejaVu Sans, sans-serif" font-size="353px" font-weight="400"><tspan class="TextPosition" x="3075" y="8508"><tspan fill="rgb(0,0,0)" stroke="none">AuditTCP4-40</tspan></tspan></tspan></text>
 <text class="TextShape" transform="rotate(-44.9 3925 8508)"><tspan class="TextParagraph" font-family="DejaVu Sans, sans-serif" font-size="353px" font-weight="400"><tspan class="TextPosition" x="3925" y="8508"><tspan fill="rgb(0,0,0)" stroke="none">AuditTCP5-50</tspan></tspan></tspan></text>
 <text class="TextShape" transform="rotate(-44.9 4719 8564)"><tspan class="TextParagraph" font-family="DejaVu Sans, sans-serif" font-size="353px" font-weight="400"><tspan class="TextPosition" x="4719" y="8564"><tspan fill="rgb(0,0,0)" stroke="none">AuditUDP1-10</tspan></tspan></tspan></text>
 <text class="TextShape" transform="rotate(-44.9 5569 8564)"><tspan class="TextParagraph" font-family="DejaVu Sans, sans-serif" font-size="353px" font-weight="400"><tspan class="TextPosition" x="5569" y="8564"><tspan fill="rgb(0,0,0)" stroke="none">AuditUDP2-20</tspan></tspan></tspan></text>
 <text class="TextShape" transform="rotate(-44.9 6418 8564)"><tspan class="TextParagraph" font-family="DejaVu Sans, sans-serif" font-size="353px" font-weight="400"><tspan class="TextPosition" x="6418" y="8564"><tspan fill="rgb(0,0,0)" stroke="none">AuditUDP3-30</tspan></tspan></tspan></text>
 <text class="TextShape" transform="rotate(-44.9 7268 8564)"><tspan class="TextParagraph" font-family="DejaVu Sans, sans-serif" font-size="353px" font-weight="400"><tspan class="TextPosition" x="7268" y="8564"><tspan fill="rgb(0,0,0)" stroke="none">AuditUDP4-40</tspan></tspan></tspan></text>
 <text class="TextShape" transform="rotate(-44.9 8118 8564)"><tspan class="TextParagraph" font-family="DejaVu Sans, sans-serif" font-size="353px" font-weight="400"><tspan class="TextPosition" x="8118" y="8564"><tspan fill="rgb(0,0,0)" stroke="none">AuditUDP5-50</tspan></tspan></tspan></text>
 <text class="TextShape"><tspan class="TextParagraph" font-family="DejaVu Sans, sans-serif" font-size="352px" font-weight="400"><tspan class="TextPosition" x="992" y="6512"><tspan fill="rgb(0,0,0)" stroke="none">52</tspan></tspan></tspan></text>
 <text class="TextShape"><tspan class="TextParagraph" font-family="DejaVu Sans, sans-serif" font-size="352px" font-weight="400"><tspan class="TextPosition" x="992" y="5738"><tspan fill="rgb(0,0,0)" stroke="none">53</tspan></tspan></tspan></text>
 <text class="TextShape"><tspan class="TextParagraph" font-family="DejaVu Sans, sans-serif" font-size="352px" font-weight="400"><tspan class="TextPosition" x="992" y="4963"><tspan fill="rgb(0,0,0)" stroke="none">54</tspan></tspan></tspan></text>
 <text class="TextShape"><tspan class="TextParagraph" font-family="DejaVu Sans, sans-serif" font-size="352px" font-weight="400"><tspan class="TextPosition" x="992" y="4189"><tspan fill="rgb(0,0,0)" stroke="none">55</tspan></tspan></tspan></text>
 <text class="TextShape"><tspan class="TextParagraph" font-family="DejaVu Sans, sans-serif" font-size="352px" font-weight="400"><tspan class="TextPosition" x="992" y="3415"><tspan fill="rgb(0,0,0)" stroke="none">56</tspan></tspan></tspan></text>
 <text class="TextShape"><tspan class="TextParagraph" font-family="DejaVu Sans, sans-serif" font-size="352px" font-weight="400"><tspan class="TextPosition" x="992" y="2641"><tspan fill="rgb(0,0,0)" stroke="none">57</tspan></tspan></tspan></text>
 <text class="TextShape"><tspan class="TextParagraph" font-family="DejaVu Sans, sans-serif" font-size="352px" font-weight="400"><tspan class="TextPosition" x="992" y="1866"><tspan fill="rgb(0,0,0)" stroke="none">58</tspan></tspan></tspan></text>
 <text class="TextShape"><tspan class="TextParagraph" font-family="DejaVu Sans, sans-serif" font-size="352px" font-weight="400"><tspan class="TextPosition" x="992" y="1092"><tspan fill="rgb(0,0,0)" stroke="none">59</tspan></tspan></tspan></text>
 <text class="TextShape"><tspan class="TextParagraph" font-family="DejaVu Sans, sans-serif" font-size="352px" font-weight="400"><tspan class="TextPosition" x="992" y="318"><tspan fill="rgb(0,0,0)" stroke="none">60</tspan></tspan></tspan></text>
 <path fill="rgb(0,69,134)" stroke="none" d="M 10703,4392 L 10597,4392 10597,4182 10808,4182 10808,4392 10703,4392 Z"/>
 <text class="TextShape"><tspan class="TextParagraph" font-family="DejaVu Sans, sans-serif" font-size="352px" font-weight="400"><tspan class="TextPosition" x="10908" y="4429"><tspan fill="rgb(0,0,0)" stroke="none">27 Durchschnittliche CPU-</tspan></tspan><tspan class="TextPosition" x="10908" y="4825"><tspan fill="rgb(0,0,0)" stroke="none">Auslastung des Clients in %</tspan></tspan></tspan></text>
</svg>