<?xml version="1.0" encoding="UTF-8"?>
<!DOCTYPE svg PUBLIC "-//W3C//DTD SVG 1.1//EN" "http://www.w3.org/Graphics/SVG/1.1/DTD/svg11.dtd">
<svg width="160mm" height="90mm" viewBox="0 0 16000 9000" version="1.1" xmlns="http://www.w3.org/2000/svg" xmlns:xlink="http://www.w3.org/1999/xlink" stroke-width="28.222" stroke-linejoin="round" xml:space="preserve">
 <path fill="rgb(255,255,255)" stroke="none" d="M 7996,9005 L 0,9005 0,19 15992,19 15992,9005 7996,9005 Z"/>
 <path fill="none" stroke="rgb(179,179,179)" stroke-linejoin="round" d="M 6073,6398 L 1647,6398 1647,199 10499,199 10499,6398 6073,6398 Z"/>
 <path fill="none" stroke="rgb(179,179,179)" stroke-linejoin="round" d="M 10499,6397 L 1647,6397"/>
 <path fill="none" stroke="rgb(179,179,179)" stroke-linejoin="round" d="M 10499,5707 L 1647,5707"/>
 <path fill="none" stroke="rgb(179,179,179)" stroke-linejoin="round" d="M 10499,5019 L 1647,5019"/>
 <path fill="none" stroke="rgb(179,179,179)" stroke-linejoin="round" d="M 10499,4330 L 1647,4330"/>
 <path fill="none" stroke="rgb(179,179,179)" stroke-linejoin="round" d="M 10499,3641 L 1647,3641"/>
 <path fill="none" stroke="rgb(179,179,179)" stroke-linejoin="round" d="M 10499,2952 L 1647,2952"/>
 <path fill="none" stroke="rgb(179,179,179)" stroke-linejoin="round" d="M 10499,2264 L 1647,2264"/>
 <path fill="none" stroke="rgb(179,179,179)" stroke-linejoin="round" d="M 10499,1575 L 1647,1575"/>
 <path fill="none" stroke="rgb(179,179,179)" stroke-linejoin="round" d="M 10499,886 L 1647,886"/>
 <path fill="none" stroke="rgb(179,179,179)" stroke-linejoin="round" d="M 10499,198 L 1647,198"/>
 <path fill="none" stroke="rgb(179,179,179)" stroke-linejoin="round" d="M 1647,6546 L 1647,6397"/>
 <path fill="none" stroke="rgb(179,179,179)" stroke-linejoin="round" d="M 1647,6546 L 1647,6397"/>
 <path fill="none" stroke="rgb(179,179,179)" stroke-linejoin="round" d="M 2532,6546 L 2532,6397"/>
 <path fill="none" stroke="rgb(179,179,179)" stroke-linejoin="round" d="M 2532,6546 L 2532,6397"/>
 <path fill="none" stroke="rgb(179,179,179)" stroke-linejoin="round" d="M 3417,6546 L 3417,6397"/>
 <path fill="none" stroke="rgb(179,179,179)" stroke-linejoin="round" d="M 3417,6546 L 3417,6397"/>
 <path fill="none" stroke="rgb(179,179,179)" stroke-linejoin="round" d="M 4302,6546 L 4302,6397"/>
 <path fill="none" stroke="rgb(179,179,179)" stroke-linejoin="round" d="M 4302,6546 L 4302,6397"/>
 <path fill="none" stroke="rgb(179,179,179)" stroke-linejoin="round" d="M 5188,6546 L 5188,6397"/>
 <path fill="none" stroke="rgb(179,179,179)" stroke-linejoin="round" d="M 5188,6546 L 5188,6397"/>
 <path fill="none" stroke="rgb(179,179,179)" stroke-linejoin="round" d="M 6073,6546 L 6073,6397"/>
 <path fill="none" stroke="rgb(179,179,179)" stroke-linejoin="round" d="M 6073,6546 L 6073,6397"/>
 <path fill="none" stroke="rgb(179,179,179)" stroke-linejoin="round" d="M 6958,6546 L 6958,6397"/>
 <path fill="none" stroke="rgb(179,179,179)" stroke-linejoin="round" d="M 6958,6546 L 6958,6397"/>
 <path fill="none" stroke="rgb(179,179,179)" stroke-linejoin="round" d="M 7844,6546 L 7844,6397"/>
 <path fill="none" stroke="rgb(179,179,179)" stroke-linejoin="round" d="M 7844,6546 L 7844,6397"/>
 <path fill="none" stroke="rgb(179,179,179)" stroke-linejoin="round" d="M 8728,6546 L 8728,6397"/>
 <path fill="none" stroke="rgb(179,179,179)" stroke-linejoin="round" d="M 8728,6546 L 8728,6397"/>
 <path fill="none" stroke="rgb(179,179,179)" stroke-linejoin="round" d="M 9613,6546 L 9613,6397"/>
 <path fill="none" stroke="rgb(179,179,179)" stroke-linejoin="round" d="M 9613,6546 L 9613,6397"/>
 <path fill="none" stroke="rgb(179,179,179)" stroke-linejoin="round" d="M 10499,6546 L 10499,6397"/>
 <path fill="none" stroke="rgb(179,179,179)" stroke-linejoin="round" d="M 10499,6546 L 10499,6397"/>
 <path fill="none" stroke="rgb(179,179,179)" stroke-linejoin="round" d="M 1647,6397 L 10499,6397"/>
 <path fill="none" stroke="rgb(179,179,179)" stroke-linejoin="round" d="M 1497,6397 L 1647,6397"/>
 <path fill="none" stroke="rgb(179,179,179)" stroke-linejoin="round" d="M 1497,6397 L 1647,6397"/>
 <path fill="none" stroke="rgb(179,179,179)" stroke-linejoin="round" d="M 1497,5707 L 1647,5707"/>
 <path fill="none" stroke="rgb(179,179,179)" stroke-linejoin="round" d="M 1497,5707 L 1647,5707"/>
 <path fill="none" stroke="rgb(179,179,179)" stroke-linejoin="round" d="M 1497,5019 L 1647,5019"/>
 <path fill="none" stroke="rgb(179,179,179)" stroke-linejoin="round" d="M 1497,5019 L 1647,5019"/>
 <path fill="none" stroke="rgb(179,179,179)" stroke-linejoin="round" d="M 1497,4330 L 1647,4330"/>
 <path fill="none" stroke="rgb(179,179,179)" stroke-linejoin="round" d="M 1497,4330 L 1647,4330"/>
 <path fill="none" stroke="rgb(179,179,179)" stroke-linejoin="round" d="M 1497,3641 L 1647,3641"/>
 <path fill="none" stroke="rgb(179,179,179)" stroke-linejoin="round" d="M 1497,3641 L 1647,3641"/>
 <path fill="none" stroke="rgb(179,179,179)" stroke-linejoin="round" d="M 1497,2952 L 1647,2952"/>
 <path fill="none" stroke="rgb(179,179,179)" stroke-linejoin="round" d="M 1497,2952 L 1647,2952"/>
 <path fill="none" stroke="rgb(179,179,179)" stroke-linejoin="round" d="M 1497,2263 L 1647,2263"/>
 <path fill="none" stroke="rgb(179,179,179)" stroke-linejoin="round" d="M 1497,2263 L 1647,2263"/>
 <path fill="none" stroke="rgb(179,179,179)" stroke-linejoin="round" d="M 1497,1575 L 1647,1575"/>
 <path fill="none" stroke="rgb(179,179,179)" stroke-linejoin="round" d="M 1497,1575 L 1647,1575"/>
 <path fill="none" stroke="rgb(179,179,179)" stroke-linejoin="round" d="M 1497,886 L 1647,886"/>
 <path fill="none" stroke="rgb(179,179,179)" stroke-linejoin="round" d="M 1497,886 L 1647,886"/>
 <path fill="none" stroke="rgb(179,179,179)" stroke-linejoin="round" d="M 1497,198 L 1647,198"/>
 <path fill="none" stroke="rgb(179,179,179)" stroke-linejoin="round" d="M 1497,198 L 1647,198"/>
 <path fill="none" stroke="rgb(179,179,179)" stroke-linejoin="round" d="M 1647,6397 L 1647,198"/>
 <path fill="rgb(0,69,134)" stroke="none" d="M 9835,6397 L 10277,6397 10277,563 9835,563 9835,6397 Z"/>
 <path fill="rgb(0,69,134)" stroke="none" d="M 8949,6397 L 9392,6397 9392,3485 8949,3485 8949,6397 Z"/>
 <path fill="rgb(0,69,134)" stroke="none" d="M 8064,6397 L 8507,6397 8507,4912 8064,4912 8064,6397 Z"/>
 <path fill="rgb(0,69,134)" stroke="none" d="M 7180,6397 L 7622,6397 7622,5663 7180,5663 7180,6397 Z"/>
 <path fill="rgb(0,69,134)" stroke="none" d="M 6294,6397 L 6737,6397 6737,6134 6294,6134 6294,6397 Z"/>
 <path fill="rgb(0,69,134)" stroke="none" d="M 5409,6397 L 5852,6397 5852,1289 5409,1289 5409,6397 Z"/>
 <path fill="rgb(0,69,134)" stroke="none" d="M 4524,6397 L 4966,6397 4966,3884 4524,3884 4524,6397 Z"/>
 <path fill="rgb(0,69,134)" stroke="none" d="M 3638,6397 L 4081,6397 4081,5002 3638,5002 3638,6397 Z"/>
 <path fill="rgb(0,69,134)" stroke="none" d="M 2753,6397 L 3196,6397 3196,5727 2753,5727 2753,6397 Z"/>
 <path fill="rgb(0,69,134)" stroke="none" d="M 1868,6397 L 2310,6397 2310,6061 1868,6061 1868,6397 Z"/>
 <text class="TextShape" transform="rotate(-44.9 526 8513)"><tspan class="TextParagraph" font-family="DejaVu Sans, sans-serif" font-size="353px" font-weight="400"><tspan class="TextPosition" x="526" y="8513"><tspan fill="rgb(0,0,0)" stroke="none">AuditTCP1-10</tspan></tspan></tspan></text>
 <text class="TextShape" transform="rotate(-44.9 1411 8513)"><tspan class="TextParagraph" font-family="DejaVu Sans, sans-serif" font-size="353px" font-weight="400"><tspan class="TextPosition" x="1411" y="8513"><tspan fill="rgb(0,0,0)" stroke="none">AuditTCP2-20</tspan></tspan></tspan></text>
 <text class="TextShape" transform="rotate(-44.9 2297 8513)"><tspan class="TextParagraph" font-family="DejaVu Sans, sans-serif" font-size="353px" font-weight="400"><tspan class="TextPosition" x="2297" y="8513"><tspan fill="rgb(0,0,0)" stroke="none">AuditTCP3-30</tspan></tspan></tspan></text>
 <text class="TextShape" transform="rotate(-44.9 3182 8513)"><tspan class="TextParagraph" font-family="DejaVu Sans, sans-serif" font-size="353px" font-weight="400"><tspan class="TextPosition" x="3182" y="8513"><tspan fill="rgb(0,0,0)" stroke="none">AuditTCP4-40</tspan></tspan></tspan></text>
 <text class="TextShape" transform="rotate(-44.9 4067 8513)"><tspan class="TextParagraph" font-family="DejaVu Sans, sans-serif" font-size="353px" font-weight="400"><tspan class="TextPosition" x="4067" y="8513"><tspan fill="rgb(0,0,0)" stroke="none">AuditTCP5-50</tspan></tspan></tspan></text>
 <text class="TextShape" transform="rotate(-44.9 4897 8569)"><tspan class="TextParagraph" font-family="DejaVu Sans, sans-serif" font-size="353px" font-weight="400"><tspan class="TextPosition" x="4897" y="8569"><tspan fill="rgb(0,0,0)" stroke="none">AuditUDP1-10</tspan></tspan></tspan></text>
 <text class="TextShape" transform="rotate(-44.9 5782 8569)"><tspan class="TextParagraph" font-family="DejaVu Sans, sans-serif" font-size="353px" font-weight="400"><tspan class="TextPosition" x="5782" y="8569"><tspan fill="rgb(0,0,0)" stroke="none">AuditUDP2-20</tspan></tspan></tspan></text>
 <text class="TextShape" transform="rotate(-44.9 6667 8569)"><tspan class="TextParagraph" font-family="DejaVu Sans, sans-serif" font-size="353px" font-weight="400"><tspan class="TextPosition" x="6667" y="8569"><tspan fill="rgb(0,0,0)" stroke="none">AuditUDP3-30</tspan></tspan></tspan></text>
 <text class="TextShape" transform="rotate(-44.9 7553 8569)"><tspan class="TextParagraph" font-family="DejaVu Sans, sans-serif" font-size="353px" font-weight="400"><tspan class="TextPosition" x="7553" y="8569"><tspan fill="rgb(0,0,0)" stroke="none">AuditUDP4-40</tspan></tspan></tspan></text>
 <text class="TextShape" transform="rotate(-44.9 8438 8569)"><tspan class="TextParagraph" font-family="DejaVu Sans, sans-serif" font-size="353px" font-weight="400"><tspan class="TextPosition" x="8438" y="8569"><tspan fill="rgb(0,0,0)" stroke="none">AuditUDP5-50</tspan></tspan></tspan></text>
 <text class="TextShape"><tspan class="TextParagraph" font-family="DejaVu Sans, sans-serif" font-size="352px" font-weight="400"><tspan class="TextPosition" x="1185" y="6517"><tspan fill="rgb(0,0,0)" stroke="none">0</tspan></tspan></tspan></text>
 <text class="TextShape"><tspan class="TextParagraph" font-family="DejaVu Sans, sans-serif" font-size="352px" font-weight="400"><tspan class="TextPosition" x="974" y="5828"><tspan fill="rgb(0,0,0)" stroke="none">10</tspan></tspan></tspan></text>
 <text class="TextShape"><tspan class="TextParagraph" font-family="DejaVu Sans, sans-serif" font-size="352px" font-weight="400"><tspan class="TextPosition" x="974" y="5139"><tspan fill="rgb(0,0,0)" stroke="none">20</tspan></tspan></tspan></text>
 <text class="TextShape"><tspan class="TextParagraph" font-family="DejaVu Sans, sans-serif" font-size="352px" font-weight="400"><tspan class="TextPosition" x="974" y="4451"><tspan fill="rgb(0,0,0)" stroke="none">30</tspan></tspan></tspan></text>
 <text class="TextShape"><tspan class="TextParagraph" font-family="DejaVu Sans, sans-serif" font-size="352px" font-weight="400"><tspan class="TextPosition" x="974" y="3761"><tspan fill="rgb(0,0,0)" stroke="none">40</tspan></tspan></tspan></text>
 <text class="TextShape"><tspan class="TextParagraph" font-family="DejaVu Sans, sans-serif" font-size="352px" font-weight="400"><tspan class="TextPosition" x="974" y="3073"><tspan fill="rgb(0,0,0)" stroke="none">50</tspan></tspan></tspan></text>
 <text class="TextShape"><tspan class="TextParagraph" font-family="DejaVu Sans, sans-serif" font-size="352px" font-weight="400"><tspan class="TextPosition" x="974" y="2383"><tspan fill="rgb(0,0,0)" stroke="none">60</tspan></tspan></tspan></text>
 <text class="TextShape"><tspan class="TextParagraph" font-family="DejaVu Sans, sans-serif" font-size="352px" font-weight="400"><tspan class="TextPosition" x="974" y="1695"><tspan fill="rgb(0,0,0)" stroke="none">70</tspan></tspan></tspan></text>
 <text class="TextShape"><tspan class="TextParagraph" font-family="DejaVu Sans, sans-serif" font-size="352px" font-weight="400"><tspan class="TextPosition" x="974" y="1006"><tspan fill="rgb(0,0,0)" stroke="none">80</tspan></tspan></tspan></text>
 <text class="TextShape"><tspan class="TextParagraph" font-family="DejaVu Sans, sans-serif" font-size="352px" font-weight="400"><tspan class="TextPosition" x="974" y="318"><tspan fill="rgb(0,0,0)" stroke="none">90</tspan></tspan></tspan></text>
 <path fill="rgb(0,69,134)" stroke="none" d="M 11040,4198 L 10934,4198 10934,3987 11145,3987 11145,4198 11040,4198 Z"/>
 <text class="TextShape"><tspan class="TextParagraph" font-family="DejaVu Sans, sans-serif" font-size="352px" font-weight="400"><tspan class="TextPosition" x="11245" y="4235"><tspan fill="rgb(0,0,0)" stroke="none">16 Durchschnittliche </tspan></tspan><tspan class="TextPosition" x="11245" y="4631"><tspan fill="rgb(0,0,0)" stroke="none">Serverbearbeitungszeit in </tspan></tspan><tspan class="TextPosition" x="11245" y="5027"><tspan fill="rgb(0,0,0)" stroke="none">ms</tspan></tspan></tspan></text>
</svg>