<?xml version="1.0" encoding="UTF-8"?>
<!DOCTYPE svg PUBLIC "-//W3C//DTD SVG 1.1//EN" "http://www.w3.org/Graphics/SVG/1.1/DTD/svg11.dtd">
<svg width="160mm" height="90mm" viewBox="0 0 16000 9000" version="1.1" xmlns="http://www.w3.org/2000/svg" xmlns:xlink="http://www.w3.org/1999/xlink" stroke-width="28.222" stroke-linejoin="round" xml:space="preserve">
 <path fill="rgb(255,255,255)" stroke="none" d="M 7996,9005 L 0,9005 0,19 15993,19 15993,9005 7996,9005 Z"/>
 <path fill="none" stroke="rgb(179,179,179)" stroke-linejoin="round" d="M 6174,6399 L 1636,6399 1636,199 10712,199 10712,6399 6174,6399 Z"/>
 <path fill="none" stroke="rgb(179,179,179)" stroke-linejoin="round" d="M 10711,6398 L 1636,6398"/>
 <path fill="none" stroke="rgb(179,179,179)" stroke-linejoin="round" d="M 10711,5708 L 1636,5708"/>
 <path fill="none" stroke="rgb(179,179,179)" stroke-linejoin="round" d="M 10711,5020 L 1636,5020"/>
 <path fill="none" stroke="rgb(179,179,179)" stroke-linejoin="round" d="M 10711,4330 L 1636,4330"/>
 <path fill="none" stroke="rgb(179,179,179)" stroke-linejoin="round" d="M 10711,3642 L 1636,3642"/>
 <path fill="none" stroke="rgb(179,179,179)" stroke-linejoin="round" d="M 10711,2952 L 1636,2952"/>
 <path fill="none" stroke="rgb(179,179,179)" stroke-linejoin="round" d="M 10711,2264 L 1636,2264"/>
 <path fill="none" stroke="rgb(179,179,179)" stroke-linejoin="round" d="M 10711,1575 L 1636,1575"/>
 <path fill="none" stroke="rgb(179,179,179)" stroke-linejoin="round" d="M 10711,886 L 1636,886"/>
 <path fill="none" stroke="rgb(179,179,179)" stroke-linejoin="round" d="M 10711,198 L 1636,198"/>
 <path fill="none" stroke="rgb(179,179,179)" stroke-linejoin="round" d="M 1636,6547 L 1636,6398"/>
 <path fill="none" stroke="rgb(179,179,179)" stroke-linejoin="round" d="M 1636,6547 L 1636,6398"/>
 <path fill="none" stroke="rgb(179,179,179)" stroke-linejoin="round" d="M 2543,6547 L 2543,6398"/>
 <path fill="none" stroke="rgb(179,179,179)" stroke-linejoin="round" d="M 2543,6547 L 2543,6398"/>
 <path fill="none" stroke="rgb(179,179,179)" stroke-linejoin="round" d="M 3451,6547 L 3451,6398"/>
 <path fill="none" stroke="rgb(179,179,179)" stroke-linejoin="round" d="M 3451,6547 L 3451,6398"/>
 <path fill="none" stroke="rgb(179,179,179)" stroke-linejoin="round" d="M 4359,6547 L 4359,6398"/>
 <path fill="none" stroke="rgb(179,179,179)" stroke-linejoin="round" d="M 4359,6547 L 4359,6398"/>
 <path fill="none" stroke="rgb(179,179,179)" stroke-linejoin="round" d="M 5266,6547 L 5266,6398"/>
 <path fill="none" stroke="rgb(179,179,179)" stroke-linejoin="round" d="M 5266,6547 L 5266,6398"/>
 <path fill="none" stroke="rgb(179,179,179)" stroke-linejoin="round" d="M 6174,6547 L 6174,6398"/>
 <path fill="none" stroke="rgb(179,179,179)" stroke-linejoin="round" d="M 6174,6547 L 6174,6398"/>
 <path fill="none" stroke="rgb(179,179,179)" stroke-linejoin="round" d="M 7082,6547 L 7082,6398"/>
 <path fill="none" stroke="rgb(179,179,179)" stroke-linejoin="round" d="M 7082,6547 L 7082,6398"/>
 <path fill="none" stroke="rgb(179,179,179)" stroke-linejoin="round" d="M 7989,6547 L 7989,6398"/>
 <path fill="none" stroke="rgb(179,179,179)" stroke-linejoin="round" d="M 7989,6547 L 7989,6398"/>
 <path fill="none" stroke="rgb(179,179,179)" stroke-linejoin="round" d="M 8896,6547 L 8896,6398"/>
 <path fill="none" stroke="rgb(179,179,179)" stroke-linejoin="round" d="M 8896,6547 L 8896,6398"/>
 <path fill="none" stroke="rgb(179,179,179)" stroke-linejoin="round" d="M 9804,6547 L 9804,6398"/>
 <path fill="none" stroke="rgb(179,179,179)" stroke-linejoin="round" d="M 9804,6547 L 9804,6398"/>
 <path fill="none" stroke="rgb(179,179,179)" stroke-linejoin="round" d="M 10711,6547 L 10711,6398"/>
 <path fill="none" stroke="rgb(179,179,179)" stroke-linejoin="round" d="M 10711,6547 L 10711,6398"/>
 <path fill="none" stroke="rgb(179,179,179)" stroke-linejoin="round" d="M 1636,6398 L 10711,6398"/>
 <path fill="none" stroke="rgb(179,179,179)" stroke-linejoin="round" d="M 1486,6398 L 1636,6398"/>
 <path fill="none" stroke="rgb(179,179,179)" stroke-linejoin="round" d="M 1486,6398 L 1636,6398"/>
 <path fill="none" stroke="rgb(179,179,179)" stroke-linejoin="round" d="M 1486,5708 L 1636,5708"/>
 <path fill="none" stroke="rgb(179,179,179)" stroke-linejoin="round" d="M 1486,5708 L 1636,5708"/>
 <path fill="none" stroke="rgb(179,179,179)" stroke-linejoin="round" d="M 1486,5020 L 1636,5020"/>
 <path fill="none" stroke="rgb(179,179,179)" stroke-linejoin="round" d="M 1486,5020 L 1636,5020"/>
 <path fill="none" stroke="rgb(179,179,179)" stroke-linejoin="round" d="M 1486,4330 L 1636,4330"/>
 <path fill="none" stroke="rgb(179,179,179)" stroke-linejoin="round" d="M 1486,4330 L 1636,4330"/>
 <path fill="none" stroke="rgb(179,179,179)" stroke-linejoin="round" d="M 1486,3642 L 1636,3642"/>
 <path fill="none" stroke="rgb(179,179,179)" stroke-linejoin="round" d="M 1486,3642 L 1636,3642"/>
 <path fill="none" stroke="rgb(179,179,179)" stroke-linejoin="round" d="M 1486,2952 L 1636,2952"/>
 <path fill="none" stroke="rgb(179,179,179)" stroke-linejoin="round" d="M 1486,2952 L 1636,2952"/>
 <path fill="none" stroke="rgb(179,179,179)" stroke-linejoin="round" d="M 1486,2264 L 1636,2264"/>
 <path fill="none" stroke="rgb(179,179,179)" stroke-linejoin="round" d="M 1486,2264 L 1636,2264"/>
 <path fill="none" stroke="rgb(179,179,179)" stroke-linejoin="round" d="M 1486,1575 L 1636,1575"/>
 <path fill="none" stroke="rgb(179,179,179)" stroke-linejoin="round" d="M 1486,1575 L 1636,1575"/>
 <path fill="none" stroke="rgb(179,179,179)" stroke-linejoin="round" d="M 1486,886 L 1636,886"/>
 <path fill="none" stroke="rgb(179,179,179)" stroke-linejoin="round" d="M 1486,886 L 1636,886"/>
 <path fill="none" stroke="rgb(179,179,179)" stroke-linejoin="round" d="M 1486,198 L 1636,198"/>
 <path fill="none" stroke="rgb(179,179,179)" stroke-linejoin="round" d="M 1486,198 L 1636,198"/>
 <path fill="none" stroke="rgb(179,179,179)" stroke-linejoin="round" d="M 1636,6398 L 1636,198"/>
 <path fill="rgb(0,69,134)" stroke="none" d="M 10031,6398 L 10485,6398 10485,876 10031,876 10031,6398 Z"/>
 <path fill="rgb(0,69,134)" stroke="none" d="M 9123,6398 L 9577,6398 9577,1820 9123,1820 9123,6398 Z"/>
 <path fill="rgb(0,69,134)" stroke="none" d="M 8215,6398 L 8669,6398 8669,2833 8215,2833 8215,6398 Z"/>
 <path fill="rgb(0,69,134)" stroke="none" d="M 7309,6398 L 7762,6398 7762,3544 7309,3544 7309,6398 Z"/>
 <path fill="rgb(0,69,134)" stroke="none" d="M 6401,6398 L 6855,6398 6855,4257 6401,4257 6401,6398 Z"/>
 <path fill="rgb(0,69,134)" stroke="none" d="M 5493,6398 L 5947,6398 5947,1125 5493,1125 5493,6398 Z"/>
 <path fill="rgb(0,69,134)" stroke="none" d="M 4586,6398 L 5039,6398 5039,1954 4586,1954 4586,6398 Z"/>
 <path fill="rgb(0,69,134)" stroke="none" d="M 3678,6398 L 4132,6398 4132,2739 3678,2739 3678,6398 Z"/>
 <path fill="rgb(0,69,134)" stroke="none" d="M 2770,6398 L 3224,6398 3224,3396 2770,3396 2770,6398 Z"/>
 <path fill="rgb(0,69,134)" stroke="none" d="M 1862,6398 L 2316,6398 2316,4080 1862,4080 1862,6398 Z"/>
 <text class="TextShape" transform="rotate(-44.9 526 8514)"><tspan class="TextParagraph" font-family="DejaVu Sans, sans-serif" font-size="353px" font-weight="400"><tspan class="TextPosition" x="526" y="8514"><tspan fill="rgb(0,0,0)" stroke="none">AuditTCP1-10</tspan></tspan></tspan></text>
 <text class="TextShape" transform="rotate(-44.9 1434 8514)"><tspan class="TextParagraph" font-family="DejaVu Sans, sans-serif" font-size="353px" font-weight="400"><tspan class="TextPosition" x="1434" y="8514"><tspan fill="rgb(0,0,0)" stroke="none">AuditTCP2-20</tspan></tspan></tspan></text>
 <text class="TextShape" transform="rotate(-44.9 2342 8514)"><tspan class="TextParagraph" font-family="DejaVu Sans, sans-serif" font-size="353px" font-weight="400"><tspan class="TextPosition" x="2342" y="8514"><tspan fill="rgb(0,0,0)" stroke="none">AuditTCP3-30</tspan></tspan></tspan></text>
 <text class="TextShape" transform="rotate(-44.9 3249 8514)"><tspan class="TextParagraph" font-family="DejaVu Sans, sans-serif" font-size="353px" font-weight="400"><tspan class="TextPosition" x="3249" y="8514"><tspan fill="rgb(0,0,0)" stroke="none">AuditTCP4-40</tspan></tspan></tspan></text>
 <text class="TextShape" transform="rotate(-44.9 4157 8514)"><tspan class="TextParagraph" font-family="DejaVu Sans, sans-serif" font-size="353px" font-weight="400"><tspan class="TextPosition" x="4157" y="8514"><tspan fill="rgb(0,0,0)" stroke="none">AuditTCP5-50</tspan></tspan></tspan></text>
 <text class="TextShape" transform="rotate(-44.9 5009 8570)"><tspan class="TextParagraph" font-family="DejaVu Sans, sans-serif" font-size="353px" font-weight="400"><tspan class="TextPosition" x="5009" y="8570"><tspan fill="rgb(0,0,0)" stroke="none">AuditUDP1-10</tspan></tspan></tspan></text>
 <text class="TextShape" transform="rotate(-44.9 5917 8570)"><tspan class="TextParagraph" font-family="DejaVu Sans, sans-serif" font-size="353px" font-weight="400"><tspan class="TextPosition" x="5917" y="8570"><tspan fill="rgb(0,0,0)" stroke="none">AuditUDP2-20</tspan></tspan></tspan></text>
 <text class="TextShape" transform="rotate(-44.9 6824 8570)"><tspan class="TextParagraph" font-family="DejaVu Sans, sans-serif" font-size="353px" font-weight="400"><tspan class="TextPosition" x="6824" y="8570"><tspan fill="rgb(0,0,0)" stroke="none">AuditUDP3-30</tspan></tspan></tspan></text>
 <text class="TextShape" transform="rotate(-44.9 7732 8570)"><tspan class="TextParagraph" font-family="DejaVu Sans, sans-serif" font-size="353px" font-weight="400"><tspan class="TextPosition" x="7732" y="8570"><tspan fill="rgb(0,0,0)" stroke="none">AuditUDP4-40</tspan></tspan></tspan></text>
 <text class="TextShape" transform="rotate(-44.9 8640 8570)"><tspan class="TextParagraph" font-family="DejaVu Sans, sans-serif" font-size="353px" font-weight="400"><tspan class="TextPosition" x="8640" y="8570"><tspan fill="rgb(0,0,0)" stroke="none">AuditUDP5-50</tspan></tspan></tspan></text>
 <text class="TextShape"><tspan class="TextParagraph" font-family="DejaVu Sans, sans-serif" font-size="352px" font-weight="400"><tspan class="TextPosition" x="1174" y="6518"><tspan fill="rgb(0,0,0)" stroke="none">0</tspan></tspan></tspan></text>
 <text class="TextShape"><tspan class="TextParagraph" font-family="DejaVu Sans, sans-serif" font-size="352px" font-weight="400"><tspan class="TextPosition" x="1174" y="5829"><tspan fill="rgb(0,0,0)" stroke="none">1</tspan></tspan></tspan></text>
 <text class="TextShape"><tspan class="TextParagraph" font-family="DejaVu Sans, sans-serif" font-size="352px" font-weight="400"><tspan class="TextPosition" x="1174" y="5140"><tspan fill="rgb(0,0,0)" stroke="none">2</tspan></tspan></tspan></text>
 <text class="TextShape"><tspan class="TextParagraph" font-family="DejaVu Sans, sans-serif" font-size="352px" font-weight="400"><tspan class="TextPosition" x="1174" y="4451"><tspan fill="rgb(0,0,0)" stroke="none">3</tspan></tspan></tspan></text>
 <text class="TextShape"><tspan class="TextParagraph" font-family="DejaVu Sans, sans-serif" font-size="352px" font-weight="400"><tspan class="TextPosition" x="1174" y="3762"><tspan fill="rgb(0,0,0)" stroke="none">4</tspan></tspan></tspan></text>
 <text class="TextShape"><tspan class="TextParagraph" font-family="DejaVu Sans, sans-serif" font-size="352px" font-weight="400"><tspan class="TextPosition" x="1174" y="3073"><tspan fill="rgb(0,0,0)" stroke="none">5</tspan></tspan></tspan></text>
 <text class="TextShape"><tspan class="TextParagraph" font-family="DejaVu Sans, sans-serif" font-size="352px" font-weight="400"><tspan class="TextPosition" x="1174" y="2384"><tspan fill="rgb(0,0,0)" stroke="none">6</tspan></tspan></tspan></text>
 <text class="TextShape"><tspan class="TextParagraph" font-family="DejaVu Sans, sans-serif" font-size="352px" font-weight="400"><tspan class="TextPosition" x="1174" y="1695"><tspan fill="rgb(0,0,0)" stroke="none">7</tspan></tspan></tspan></text>
 <text class="TextShape"><tspan class="TextParagraph" font-family="DejaVu Sans, sans-serif" font-size="352px" font-weight="400"><tspan class="TextPosition" x="1174" y="1006"><tspan fill="rgb(0,0,0)" stroke="none">8</tspan></tspan></tspan></text>
 <text class="TextShape"><tspan class="TextParagraph" font-family="DejaVu Sans, sans-serif" font-size="352px" font-weight="400"><tspan class="TextPosition" x="1174" y="318"><tspan fill="rgb(0,0,0)" stroke="none">9</tspan></tspan></tspan></text>
 <path fill="rgb(0,69,134)" stroke="none" d="M 11253,4395 L 11147,4395 11147,4185 11358,4185 11358,4395 11253,4395 Z"/>
 <text class="TextShape"><tspan class="TextParagraph" font-family="DejaVu Sans, sans-serif" font-size="352px" font-weight="400"><tspan class="TextPosition" x="11458" y="4432"><tspan fill="rgb(0,0,0)" stroke="none">12 RTT-Minimum aller </tspan></tspan><tspan class="TextPosition" x="11458" y="4828"><tspan fill="rgb(0,0,0)" stroke="none">gemessenen RTTs in ms</tspan></tspan></tspan></text>
</svg>